<svg xmlns="http://www.w3.org/2000/svg" xmlns:xlink="http://www.w3.org/1999/xlink" width="131" height="131" viewBox="0 0 131 131">
    <defs>
        <path id="a" d="M.658 38.432c0 21.143 17.474 38.283 39.03 38.283 21.555 0 39.03-17.14 39.03-38.283S61.243.15 39.688.15C18.132.15.658 17.29.658 38.432z"/>
        <path id="c" d="M.31 9.89c2.82.29 5.49 1.268 7.329 2.1C6.965 7.118 4.369 2.563.31.585V9.89z"/>
        <path id="e" d="M.819 11.99c1.835-.833 4.508-1.812 7.328-2.105v-9.3C4.088 2.564 1.492 7.117.82 11.99z"/>
        <path id="g" d="M1.418 1.046a38.336 38.336 0 0 0-1.087 9.009v25.52h21.016v-25.52c0-3.246-.42-6.25-1.082-9.01H1.418z"/>
        <path id="i" d="M.327 5.246a4.504 4.504 0 0 0 9.007 0 4.504 4.504 0 0 0-9.007 0z"/>
        <path id="k" d="M30.676 1.009V16.02h-.152a7.505 7.505 0 0 0-7.355-6.005c-2.685 0-5.028 1.426-6.35 3.558-1.08-3.783-4.546-6.56-8.66-6.56-3.454 0-6.456 1.951-7.971 4.803a39.05 39.05 0 0 0 6.05 7.792 37.908 37.908 0 0 0 5.613 4.64c13.165 9.022 30.638 9.051 43.835.09a38.715 38.715 0 0 0 5.734-4.73 38.794 38.794 0 0 0 5.885-7.522c-1.472-3.001-4.55-5.074-8.108-5.074-4.128 0-7.595 2.778-8.66 6.561-1.321-2.132-3.664-3.558-6.35-3.558a7.505 7.505 0 0 0-7.356 6.005h-.151V1.009h-6.004z"/>
        <path id="m" d="M39.829 1.227c-.51.508-12.45 12.04-12.45 30.466v11.299c-6.651 2.379-10.507 9.898-10.507 17.225v2.655l2.277-1.369c.062-.037 4.04-2.38 8.23-2.906v1.62h4.505v6.005h4.504v8.305a9.013 9.013 0 0 0-6.007-2.3 8.899 8.899 0 0 0-5.928 2.247c-1.856-3.182-5.302-5.248-9.083-5.248-3.069 0-5.916 1.345-7.891 3.596a37.345 37.345 0 0 1-4.118-17.11c0-9.413 4-18.39 11.57-25.96l1.06-1.063-2.12-2.123-1.062 1.061C4.665 35.774.359 45.487.359 55.711c0 10.83 4.217 21.009 11.87 28.664 7.904 7.903 18.282 11.873 28.661 11.873 10.379 0 20.758-3.97 28.661-11.873 7.654-7.655 11.87-17.834 11.87-28.661 0-10.228-4.305-19.94-12.45-28.087l-1.06-1.061-2.123 2.123 1.061 1.062c7.57 7.571 11.57 16.548 11.57 25.963a37.33 37.33 0 0 1-4.111 17.096 10.437 10.437 0 0 0-7.899-3.584c-3.791 0-7.24 2.065-9.086 5.245a8.897 8.897 0 0 0-5.925-2.244 9.005 9.005 0 0 0-6.004 2.3v-8.305h4.503v-6.005h4.504v-1.618c4.191.526 8.17 2.867 8.23 2.904l2.277 1.37v-2.656c0-7.327-3.855-14.846-10.507-17.225v-11.3c0-18.424-11.94-29.957-12.45-30.465L40.892.166l-1.062 1.061zm1.063 3.311c1.953 2.306 6.129 7.572 8.588 15.143H32.308c2.46-7.559 6.634-12.832 8.584-15.143zm-10.51 27.155c0-3.243.422-6.248 1.087-9.009h18.846a38.445 38.445 0 0 1 1.083 9.009v25.521H30.381V31.693zM27.38 46.265v9.3c-2.82.294-5.494 1.273-7.33 2.106.674-4.872 3.27-9.425 7.33-11.406zM54.4 55.571v-9.305c4.06 1.978 6.654 6.533 7.329 11.405-1.838-.832-4.509-1.81-7.329-2.1zm-19.515 4.646h12.008v3.003H34.886v-3.003zm4.503 21.02V66.221h3.003v15.014h2.878l.244-1.206c.562-2.781 3.037-4.8 5.884-4.8 2.073 0 3.97 1.064 5.074 2.846l1.796 2.9.925-3.282a7.521 7.521 0 0 1 7.216-5.467 7.46 7.46 0 0 1 6.284 3.416 37.778 37.778 0 0 1-5.266 6.61c-14.632 14.634-38.441 14.634-53.072 0A37.898 37.898 0 0 1 9.09 75.65c1.387-2.122 3.726-3.422 6.28-3.422 3.33 0 6.298 2.25 7.22 5.473l.931 3.263 1.788-2.886c1.104-1.783 3.001-2.847 5.072-2.847 2.849 0 5.324 2.019 5.884 4.8l.244 1.206h2.88z"/>
        <path id="o" d="M.028 6.448a6.01 6.01 0 0 0 6.004 6.005 6.01 6.01 0 0 0 6.004-6.005A6.01 6.01 0 0 0 6.032.444 6.01 6.01 0 0 0 .028 6.448zm3.001 0a3.007 3.007 0 0 1 3.003-3.004 3.003 3.003 0 0 1 0 6.006 3.004 3.004 0 0 1-3.003-3.002z"/>
        <path id="q" d="M1.055 16.075h17.172C15.768 8.504 11.592 3.237 9.64.932c-1.95 2.31-6.123 7.584-8.584 15.143z"/>
    </defs>
    <g fill="none" fill-rule="evenodd">
        <path stroke="#FFF" d="M.569 129.87H129.87V.571H.569z"/>
        <g transform="translate(42.465 28.415)">
            <mask id="b" fill="#fff">
                <use xlink:href="#a"/>
            </mask>
            <path fill="#00AEED" d="M-3.095 80.468h85.567V-3.604H-3.095z" mask="url(#b)"/>
        </g>
        <g transform="translate(95.354 56.064)">
            <mask id="d" fill="#fff">
                <use xlink:href="#c"/>
            </mask>
            <path fill="#FFF" d="M-3.444 15.743h14.836v-18.91H-3.444z" mask="url(#d)"/>
        </g>
        <g transform="translate(60.495 56.064)">
            <mask id="f" fill="#fff">
                <use xlink:href="#e"/>
            </mask>
            <path fill="#FFF" d="M-2.934 15.743H11.9V-3.17H-2.934z" mask="url(#f)"/>
        </g>
        <g transform="translate(71.313 32.022)">
            <mask id="h" fill="#fff">
                <use xlink:href="#g"/>
            </mask>
            <path fill="#FFF" d="M-3.42 39.329h28.522V-2.707H-3.421z" mask="url(#h)"/>
        </g>
        <path fill="#FFF" d="M76.149 70.6v3.002h12.008v-3.001z"/>
        <g transform="translate(77.323 36.83)">
            <mask id="j" fill="#fff">
                <use xlink:href="#i"/>
            </mask>
            <path fill="#00AEED" d="M-3.427 13.504h16.513V-3.01H-3.427z" mask="url(#j)"/>
        </g>
        <g transform="translate(48.475 74.096)">
            <mask id="l" fill="#fff">
                <use xlink:href="#k"/>
            </mask>
            <path fill="#FFDC28" d="M-3.566 34.792h74.622V-2.746H-3.566z" mask="url(#l)"/>
        </g>
        <g transform="translate(41.263 10.383)">
            <mask id="n" fill="#fff">
                <use xlink:href="#m"/>
            </mask>
            <path fill="#003564" d="M-3.395 100.001h88.57V-3.589h-88.57z" mask="url(#n)"/>
        </g>
        <g transform="translate(76.121 35.628)">
            <mask id="p" fill="#fff">
                <use xlink:href="#o"/>
            </mask>
            <path fill="#003564" d="M-3.725 16.207h19.514V-3.309H-3.725z" mask="url(#p)"/>
        </g>
        <path fill="#003564" d="M100.166 13.551v3.002h-3.001v3.004h3.001v3.002h3.003v-3.002h3.001v-3.004h-3.001v-3.002zM52.13 21.058v3.001h-3.002v3.004h3.001v3.001h3.003v-3h3.002v-3.005h-3.002v-3.001zM113.678 25.562v3.003h-3.003v3.001h3.003v3.003h3.002v-3.003h3.002v-3.001h-3.002v-3.003zM104.67 45.078v1.502h-1.5v3.003h1.5v1.501h3.002v-1.501h1.502V46.58h-1.502v-1.502zM61.136 37.572v1.5h-1.501v3.004h1.501v1.502h3.002v-1.502h1.502v-3.004h-1.502v-1.5zM61.136 10.549v1.5h-1.501v3.004h1.501v1.5h3.002v-1.5h1.502V12.05h-1.502v-1.5z"/>
        <g transform="translate(72.515 13.99)">
            <mask id="r" fill="#fff">
                <use xlink:href="#q"/>
            </mask>
            <path fill="#F26F53" d="M-2.697 19.83H21.98V-2.825H-2.697z" mask="url(#r)"/>
        </g>
        <path fill="#00EFD1" d="M59.455 96.581c0 13.396-10.858 24.256-24.253 24.256-13.394 0-24.253-10.86-24.253-24.256s10.859-24.255 24.253-24.255c13.395 0 24.253 10.859 24.253 24.255"/>
        <path fill="#3E8EAA" d="M35.219 66.297a6.847 6.847 0 0 1 0 13.694 6.846 6.846 0 0 1-6.846-6.847 6.846 6.846 0 0 1 6.846-6.847"/>
        <path fill="#FFAC28" d="M7.55 113.248h14.26l-7.13-12.678z"/>
        <path fill="#F26F53" d="M50.867 113.248H64.56V99.554H50.867z"/>
        <path fill="#003564" d="M35.219 66.297c3.775 0 6.846 3.072 6.846 6.847a6.854 6.854 0 0 1-6.846 6.847c-3.775 0-6.846-3.071-6.846-6.847 0-3.775 3.071-6.847 6.846-6.847m0 15.65c4.854 0 8.802-3.95 8.802-8.803 0-4.854-3.948-8.803-8.802-8.803-4.854 0-8.801 3.949-8.801 8.803 0 4.853 3.947 8.803 8.8 8.803M7.55 113.248l7.13-12.678 7.13 12.678H7.55zm16.777 1.472a.978.978 0 0 0 .008-.973l-8.802-15.65c-.345-.616-1.359-.616-1.705 0l-8.802 15.65a.978.978 0 0 0 .85 1.457h17.607c.348 0 .67-.184.844-.484zM50.867 113.248H64.56V99.554H50.867v13.694zm14.672-15.65h-15.65a.978.978 0 0 0-.978.978v15.65c0 .54.438.978.979.978h15.649c.54 0 .977-.439.977-.978v-15.65a.977.977 0 0 0-.977-.978zM35.219 120.094c-4.54 0-8.946-1.298-12.74-3.755l-1.063 1.642a25.329 25.329 0 0 0 13.803 4.07c5.106 0 10.03-1.508 14.241-4.359l-1.096-1.62a23.358 23.358 0 0 1-13.145 4.022M58.675 95.68l1.954-.076a25.411 25.411 0 0 0-14.221-21.828l-.862 1.756A23.457 23.457 0 0 1 58.675 95.68M11.82 98.498a23.714 23.714 0 0 1-.074-1.879c0-9.026 5.038-17.107 13.145-21.086l-.86-1.756C15.247 78.087 9.79 86.84 9.79 96.619c0 .682.026 1.366.08 2.034l1.95-.155zM44.021 95.64a8.835 8.835 0 0 0-4.4-7.624l-.98 1.694a6.876 6.876 0 0 1 3.425 5.93c0 3.191-2.198 5.87-5.153 6.628l1.137-2.277-1.75-.874-1.956 3.912a.977.977 0 0 0 .185 1.129l2.934 2.933 1.382-1.382-1.527-1.528c3.841-.945 6.703-4.41 6.703-8.54M30.82 103.268l.978-1.694a6.875 6.875 0 0 1-3.425-5.933c0-3.19 2.195-5.87 5.153-6.625l-1.138 2.275 1.75.877 1.956-3.913a.98.98 0 0 0-.184-1.13l-2.933-2.934-1.383 1.383 1.527 1.528c-3.842.943-6.705 4.41-6.705 8.539a8.838 8.838 0 0 0 4.404 7.627"/>
    </g>
</svg>
