<svg xmlns="http://www.w3.org/2000/svg" width="114" height="114" viewBox="0 0 114 114">
    <g fill="none" fill-rule="evenodd">
        <path stroke="#FFF" d="M.5 113.886h113.386V.501H.5z"/>
        <path fill="#00EFD1" d="M51.428 10.859c9.681 0 17.53 7.866 17.53 17.57 0 9.703-7.849 17.569-17.53 17.569-9.682 0-17.53-7.866-17.53-17.57 0-9.703 7.848-17.57 17.53-17.57M87.535 58.678c-.758 0-1.373.616-1.373 1.376 0 .963-.78 1.746-1.742 1.746a1.746 1.746 0 0 1-1.742-1.746c0-.76-.615-1.376-1.373-1.376s-1.373.616-1.373 1.376a4.498 4.498 0 0 0 4.488 4.497 4.498 4.498 0 0 0 4.487-4.497c0-.761-.614-1.376-1.372-1.376"/>
        <path fill="#535355" d="M13.572 57.826c-.142-.293.193-.809.406-1.091.337-.446.647-.537.882-.537.049 0 .095.004.138.01.63.084 1.515.78 1.983 1.947.11.275.254.73.287 1.297-1.9-.395-3.376-.963-3.696-1.626M87.31 42.555c-.53 4.528-1.946 8.4-3.37 9.209-1.618.918-5.354 1.096-8.16-.961-2.807-2.059-3.742-5.761-2.702-10.707.104-.498.456-.927.942-1.15 6.87-3.152 10.832-4.183 12.303-4.183.222 0 .387.023.498.067.442.472 1.022 3.156.489 7.725m13.106 16.347l-3.862-1.24a1.618 1.618 0 0 1-1.043-1.059 24.981 24.981 0 0 0-3.651-7.238 26.444 26.444 0 0 0-2.44-2.884c.57-2.506.88-5.341.84-7.791-.058-3.505-.756-5.56-2.136-6.284-.743-.391-3.005-1.578-15.247 4.039-.29.133-.56.297-.811.484a52.85 52.85 0 0 0-2.518-.612c-.101-.023-.207-.042-.31-.064a18.775 18.775 0 0 0 1.68-6.966 1.373 1.373 0 0 0-2.742-.123 15.999 15.999 0 0 1-10.447 14.309 39.687 39.687 0 0 0-11.047 0 15.874 15.874 0 0 1-5.78-3.701 15.936 15.936 0 0 1-4.683-11.33c0-4.28 1.663-8.303 4.683-11.329a15.86 15.86 0 0 1 11.304-4.694c4.27 0 8.284 1.667 11.304 4.694a16.006 16.006 0 0 1 2.98 4.124 1.371 1.371 0 0 0 1.843.61A1.378 1.378 0 0 0 68.942 20a18.758 18.758 0 0 0-3.492-4.833 18.584 18.584 0 0 0-13.244-5.499 18.588 18.588 0 0 0-13.245 5.499 18.674 18.674 0 0 0-5.487 13.275c0 5.014 1.949 9.729 5.487 13.275a18.715 18.715 0 0 0 3.305 2.639c-.852.222-1.7.472-2.537.752a1.377 1.377 0 0 0 .87 2.61 36.746 36.746 0 0 1 23.213 0 1.373 1.373 0 0 0 1.737-.869c.24-.72-.147-1.5-.867-1.741a38.81 38.81 0 0 0-2.537-.752 18.784 18.784 0 0 0 5.697-5.582 50.54 50.54 0 0 1 2.594.574c-.015.06-.031.12-.043.181-.67 3.183-.626 5.998.129 8.367.678 2.13 1.903 3.854 3.639 5.128 2.046 1.5 4.517 2.148 6.755 2.148 1.684 0 3.238-.367 4.377-1.014 1.29-.733 2.37-2.276 3.227-4.593.395.463.77.937 1.124 1.422a22.284 22.284 0 0 1 3.25 6.442 4.367 4.367 0 0 0 2.823 2.853l3.862 1.24a2.437 2.437 0 0 1 1.696 2.327v6.419a2.436 2.436 0 0 1-1.696 2.328l-6.222 1.998a4.239 4.239 0 0 0-2.373 1.931c-2.445 4.235-6.29 7.739-11.426 10.416a2.158 2.158 0 0 0-1.128 1.52l-1.993 10.577a.618.618 0 0 1-.606.503H69.35a.617.617 0 0 1-.606-.503l-1.103-5.846a2.157 2.157 0 0 0-2.452-1.738 57.27 57.27 0 0 1-8.55.638 54.48 54.48 0 0 1-6.29-.357 2.175 2.175 0 0 0-2.378 1.748l-1.05 5.555a.616.616 0 0 1-.604.503h-6.481a.619.619 0 0 1-.607-.507l-1.92-9.991a2.157 2.157 0 0 0-1.106-1.501c-8.757-4.686-13.385-12.513-13.385-22.636 0-5.115 1.116-9.638 3.318-13.443 2.055-3.552 5.056-6.488 8.92-8.728.656-.381.88-1.222.5-1.88a1.371 1.371 0 0 0-1.875-.502C26.189 44.697 21.67 51.399 20.426 59.91c-.132-.012-.264-.023-.396-.037a6.876 6.876 0 0 0-.502-2.744c-.797-1.984-2.432-3.416-4.167-3.648-1.368-.183-2.67.399-3.572 1.595-1.31 1.733-1.096 3.105-.686 3.951.69 1.428 2.468 2.438 5.416 3.072-.081.123-.17.245-.268.368-1.742 2.189-3.794 2.673-5.127 2.718a1.443 1.443 0 0 0-1.405 1.438v.006c0 .772.607 1.401 1.377 1.436.099.005.202.008.309.008 1.686 0 4.393-.624 6.993-3.892a7.824 7.824 0 0 0 1.002-1.622c.259.03.507.055.746.077v-.001a36.025 36.025 0 0 0-.073 2.271c0 5.728 1.363 10.834 4.049 15.179 2.477 4.006 6.024 7.285 10.545 9.752l1.866 9.713a3.366 3.366 0 0 0 3.303 2.742h6.48a3.366 3.366 0 0 0 3.303-2.742l.949-5.023a57.72 57.72 0 0 0 6.07.316c2.83 0 5.655-.199 8.409-.588l1 5.295a3.367 3.367 0 0 0 3.303 2.742h6.48a3.366 3.366 0 0 0 3.303-2.743l1.94-10.298c5.484-2.906 9.616-6.723 12.287-11.349.192-.333.488-.577.834-.688l6.222-1.998a5.18 5.18 0 0 0 3.603-4.948v-6.419a5.179 5.179 0 0 0-3.603-4.947"/>
        <path stroke="#535355" stroke-width=".7" d="M13.572 57.826c-.142-.293.193-.809.406-1.091.337-.446.647-.537.882-.537.049 0 .095.004.138.01.63.084 1.515.78 1.983 1.947.11.275.254.73.287 1.297-1.9-.395-3.376-.963-3.696-1.626zM87.31 42.555c-.53 4.528-1.946 8.4-3.37 9.209-1.618.918-5.354 1.096-8.16-.961-2.807-2.059-3.742-5.761-2.702-10.707.104-.498.456-.927.942-1.15 6.87-3.152 10.832-4.183 12.303-4.183.222 0 .387.023.498.067.442.472 1.022 3.156.489 7.725zm13.106 16.347l-3.862-1.24a1.618 1.618 0 0 1-1.043-1.059 24.981 24.981 0 0 0-3.651-7.238 26.444 26.444 0 0 0-2.44-2.884c.57-2.506.88-5.341.84-7.791-.058-3.505-.756-5.56-2.136-6.284-.743-.391-3.005-1.578-15.247 4.039-.29.133-.56.297-.811.484a52.85 52.85 0 0 0-2.518-.612c-.101-.023-.207-.042-.31-.064a18.775 18.775 0 0 0 1.68-6.966 1.373 1.373 0 0 0-2.742-.123 15.999 15.999 0 0 1-10.447 14.309 39.687 39.687 0 0 0-11.047 0 15.874 15.874 0 0 1-5.78-3.701 15.936 15.936 0 0 1-4.683-11.33c0-4.28 1.663-8.303 4.683-11.329a15.86 15.86 0 0 1 11.304-4.694c4.27 0 8.284 1.667 11.304 4.694a16.006 16.006 0 0 1 2.98 4.124 1.371 1.371 0 0 0 1.843.61A1.378 1.378 0 0 0 68.942 20a18.758 18.758 0 0 0-3.492-4.833 18.584 18.584 0 0 0-13.244-5.499 18.588 18.588 0 0 0-13.245 5.499 18.674 18.674 0 0 0-5.487 13.275c0 5.014 1.949 9.729 5.487 13.275a18.715 18.715 0 0 0 3.305 2.639c-.852.222-1.7.472-2.537.752a1.377 1.377 0 0 0 .87 2.61 36.746 36.746 0 0 1 23.213 0 1.373 1.373 0 0 0 1.737-.869c.24-.72-.147-1.5-.867-1.741a38.81 38.81 0 0 0-2.537-.752 18.784 18.784 0 0 0 5.697-5.582 50.54 50.54 0 0 1 2.594.574c-.015.06-.031.12-.043.181-.67 3.183-.626 5.998.129 8.367.678 2.13 1.903 3.854 3.639 5.128 2.046 1.5 4.517 2.148 6.755 2.148 1.684 0 3.238-.367 4.377-1.014 1.29-.733 2.37-2.276 3.227-4.593.395.463.77.937 1.124 1.422a22.284 22.284 0 0 1 3.25 6.442 4.367 4.367 0 0 0 2.823 2.853l3.862 1.24a2.437 2.437 0 0 1 1.696 2.327v6.419a2.436 2.436 0 0 1-1.696 2.328l-6.222 1.998a4.239 4.239 0 0 0-2.373 1.931c-2.445 4.235-6.29 7.739-11.426 10.416a2.158 2.158 0 0 0-1.128 1.52l-1.993 10.577a.618.618 0 0 1-.606.503H69.35a.617.617 0 0 1-.606-.503l-1.103-5.846a2.157 2.157 0 0 0-2.452-1.738 57.27 57.27 0 0 1-8.55.638 54.48 54.48 0 0 1-6.29-.357 2.175 2.175 0 0 0-2.378 1.748l-1.05 5.555a.616.616 0 0 1-.604.503h-6.481a.619.619 0 0 1-.607-.507l-1.92-9.991a2.157 2.157 0 0 0-1.106-1.501c-8.757-4.686-13.385-12.513-13.385-22.636 0-5.115 1.116-9.638 3.318-13.443 2.055-3.552 5.056-6.488 8.92-8.728.656-.381.88-1.222.5-1.88a1.371 1.371 0 0 0-1.875-.502C26.189 44.697 21.67 51.399 20.426 59.91c-.132-.012-.264-.023-.396-.037a6.876 6.876 0 0 0-.502-2.744c-.797-1.984-2.432-3.416-4.167-3.648-1.368-.183-2.67.399-3.572 1.595-1.31 1.733-1.096 3.105-.686 3.951.69 1.428 2.468 2.438 5.416 3.072-.081.123-.17.245-.268.368-1.742 2.189-3.794 2.673-5.127 2.718a1.443 1.443 0 0 0-1.405 1.438v.006c0 .772.607 1.401 1.377 1.436.099.005.202.008.309.008 1.686 0 4.393-.624 6.993-3.892a7.824 7.824 0 0 0 1.002-1.622c.259.03.507.055.746.077v-.001a36.025 36.025 0 0 0-.073 2.271c0 5.728 1.363 10.834 4.049 15.179 2.477 4.006 6.024 7.285 10.545 9.752l1.866 9.713a3.366 3.366 0 0 0 3.303 2.742h6.48a3.366 3.366 0 0 0 3.303-2.742l.949-5.023a57.72 57.72 0 0 0 6.07.316c2.83 0 5.655-.199 8.409-.588l1 5.295a3.367 3.367 0 0 0 3.303 2.742h6.48a3.366 3.366 0 0 0 3.303-2.743l1.94-10.298c5.484-2.906 9.616-6.723 12.287-11.349.192-.333.488-.577.834-.688l6.222-1.998a5.18 5.18 0 0 0 3.603-4.948v-6.419a5.179 5.179 0 0 0-3.603-4.947z"/>
        <path fill="#FFF" d="M53.393 34.673v-5.116c1.185.51 2.13 1.188 2.13 2.716 0 1.382-.824 2.158-2.13 2.4zm-1.137-8.268c-1.282-.485-2.323-.994-2.323-2.376 0-1.26.968-1.867 2.323-2.037v4.413zm1.282.46v-4.92c1.694.12 2.323.895 2.903.895.726 0 1.065-.92 1.065-1.38 0-1.19-2.323-1.699-3.968-1.747v-.655c0-.29-.363-.558-.726-.558-.41 0-.7.267-.7.558v.703c-2.3.242-4.598 1.454-4.598 4.51 0 3.104 2.42 3.977 4.597 4.753v5.698c-2.468-.195-3.12-1.892-3.92-1.892-.605 0-1.112.801-1.112 1.383 0 1.188 2.032 2.812 5.032 2.861v.751c0 .291.29.558.701.558.363 0 .726-.267.726-.558v-.824c2.613-.364 4.403-2.013 4.403-4.995 0-3.298-2.298-4.365-4.403-5.14z"/>
    </g>
</svg>
