<svg xmlns="http://www.w3.org/2000/svg" xmlns:xlink="http://www.w3.org/1999/xlink" width="163" height="31" viewBox="0 0 163 31">
    <defs>
        <path id="a" d="M.287.306h24.842v30.238H.287z"/>
    </defs>
    <g fill="none" fill-rule="evenodd">
        <path fill="#FFF" d="M53 6v18h-2.506v-8.19h-9.988V24H38V6h2.506v8.027h9.988V6zM66.858 16.83l-2.88-7.367c-.086-.22-.176-.474-.27-.765-.093-.29-.183-.6-.268-.929-.18.683-.363 1.251-.55 1.706l-2.88 7.356h6.848zm5.171 6.724h-1.92c-.222 0-.401-.055-.537-.164a1.008 1.008 0 0 1-.307-.417L67.549 18.6h-8.23l-1.716 4.373a.887.887 0 0 1-.295.404.825.825 0 0 1-.538.177h-1.92l7.335-18.11h2.51l7.334 18.11zM89.31 5.444v18.11h-1.242c-.196 0-.36-.034-.493-.101a1.247 1.247 0 0 1-.39-.341L76.573 9.462a16.548 16.548 0 0 1 .052 1.189v12.903h-2.177V5.444h1.28c.111 0 .205.006.282.019a.71.71 0 0 1 .384.19c.06.054.124.124.192.208l10.612 13.636a41.543 41.543 0 0 1-.045-.638 9.392 9.392 0 0 1-.019-.588V5.444h2.176zM106.873 19.813c.136 0 .255.055.357.165l.986 1.049a7.831 7.831 0 0 1-2.732 2.009c-1.072.48-2.367.72-3.886.72-1.314 0-2.508-.225-3.584-.676a7.884 7.884 0 0 1-2.752-1.895c-.76-.813-1.348-1.789-1.766-2.926-.419-1.138-.628-2.388-.628-3.754 0-1.365.218-2.616.653-3.753.435-1.138 1.048-2.115 1.837-2.932a8.217 8.217 0 0 1 2.835-1.902c1.101-.451 2.318-.676 3.648-.676 1.307 0 2.459.206 3.457.62a8.72 8.72 0 0 1 2.637 1.68l-.82 1.125a.671.671 0 0 1-.198.208.572.572 0 0 1-.326.083c-.154 0-.342-.083-.563-.247a8.614 8.614 0 0 0-.87-.55 6.842 6.842 0 0 0-1.345-.55c-.537-.164-1.2-.246-1.984-.246-.948 0-1.814.162-2.599.487a5.672 5.672 0 0 0-2.028 1.409c-.568.615-1.01 1.365-1.325 2.249-.316.885-.474 1.883-.474 2.995 0 1.13.164 2.136.493 3.02.328.886.776 1.633 1.344 2.244a5.667 5.667 0 0 0 2.01 1.397c.772.32 1.606.48 2.502.48.546 0 1.039-.032 1.478-.095.44-.063.845-.162 1.217-.297a5.149 5.149 0 0 0 1.037-.512c.32-.206.637-.453.953-.74.145-.125.29-.189.436-.189M125.14 14.505c0-1.111-.154-2.11-.461-2.995-.308-.885-.743-1.632-1.306-2.243a5.667 5.667 0 0 0-2.049-1.41c-.802-.328-1.697-.492-2.687-.492-.982 0-1.874.164-2.676.493a5.725 5.725 0 0 0-2.054 1.409c-.568.611-1.005 1.358-1.313 2.243-.307.885-.46 1.884-.46 2.995 0 1.112.153 2.109.46 2.99.308.88.745 1.625 1.313 2.236a5.653 5.653 0 0 0 2.054 1.403c.802.325 1.694.486 2.676.486.99 0 1.885-.161 2.687-.486a5.596 5.596 0 0 0 2.049-1.403c.563-.61.998-1.357 1.306-2.237.307-.88.46-1.877.46-2.989m2.548 0c0 1.357-.218 2.602-.653 3.735-.435 1.133-1.05 2.108-1.844 2.925a8.237 8.237 0 0 1-2.86 1.902c-1.114.452-2.345.677-3.693.677-1.35 0-2.578-.225-3.687-.677a8.25 8.25 0 0 1-2.855-1.902c-.793-.817-1.408-1.792-1.843-2.925-.435-1.133-.653-2.378-.653-3.735 0-1.356.218-2.6.653-3.734a8.597 8.597 0 0 1 1.843-2.932 8.281 8.281 0 0 1 2.855-1.915c1.109-.455 2.338-.682 3.687-.682 1.348 0 2.579.227 3.693.682a8.267 8.267 0 0 1 2.86 1.915 8.605 8.605 0 0 1 1.844 2.932c.435 1.133.653 2.378.653 3.734M144.11 19.813c.137 0 .256.055.358.165l.986 1.049a7.831 7.831 0 0 1-2.733 2.009c-1.071.48-2.366.72-3.885.72-1.315 0-2.509-.225-3.584-.676a7.884 7.884 0 0 1-2.753-1.895c-.759-.813-1.347-1.789-1.766-2.926-.418-1.138-.627-2.388-.627-3.754 0-1.365.218-2.616.653-3.753.435-1.138 1.047-2.115 1.836-2.932a8.217 8.217 0 0 1 2.836-1.902c1.1-.451 2.317-.676 3.648-.676 1.306 0 2.458.206 3.457.62a8.72 8.72 0 0 1 2.637 1.68l-.82 1.125a.671.671 0 0 1-.198.208.572.572 0 0 1-.326.083c-.154 0-.342-.083-.564-.247a8.614 8.614 0 0 0-.87-.55 6.842 6.842 0 0 0-1.344-.55c-.538-.164-1.2-.246-1.984-.246-.948 0-1.814.162-2.6.487a5.672 5.672 0 0 0-2.028 1.409c-.568.615-1.01 1.365-1.325 2.249-.316.885-.473 1.883-.473 2.995 0 1.13.164 2.136.492 3.02.329.886.777 1.633 1.345 2.244a5.667 5.667 0 0 0 2.01 1.397c.771.32 1.606.48 2.502.48.546 0 1.038-.032 1.478-.095.44-.063.845-.162 1.216-.297a5.149 5.149 0 0 0 1.037-.512c.32-.206.638-.453.954-.74.145-.125.29-.189.435-.189M150.805 13.38h.934c.325 0 .585-.04.781-.12.197-.08.375-.216.538-.41l6.106-6.825c.17-.219.35-.37.538-.455a1.69 1.69 0 0 1 .69-.126h2.1l-6.99 7.797c-.17.203-.334.37-.492.5-.158.13-.327.237-.506.322.23.076.44.188.628.335.187.148.37.34.55.575l7.296 8.58h-2.15c-.163 0-.3-.01-.416-.03a.97.97 0 0 1-.525-.265 1.634 1.634 0 0 1-.185-.222l-6.324-7.191c-.171-.21-.354-.36-.55-.449-.197-.088-.496-.132-.897-.132h-1.126v8.29h-2.471V5.444h2.47v7.936z"/>
        <path fill="#89C6E4" d="M10.355 23.914c-4.748.004-8.6-3.793-8.605-8.481-.004-4.687 3.842-8.49 8.59-8.494a8.666 8.666 0 0 1 5.246 1.757l.474-.321 1.062-.7C12.783 3.99 6.24 4.476 2.507 8.76a10.142 10.142 0 0 0 1.098 14.429c3.81 3.236 9.423 3.306 13.315.166l-1.497-1.048a8.628 8.628 0 0 1-5.068 1.608M20.01 19.14c.911-2.303.946-4.854.095-7.18l-1.518 1.02a8.36 8.36 0 0 1-.067 5.098l1.49 1.062z"/>
        <g transform="translate(5.541)">
            <mask id="b" fill="#fff">
                <use xlink:href="#a"/>
            </mask>
            <path fill="#009ED6" d="M25.098 25.633c-.298-2.402-2.512-4.111-4.945-3.817-.496.06-.978.202-1.426.42a2.547 2.547 0 0 1-2.598-.203l-5.922-4.193a2.412 2.412 0 0 1-1.061-2.096V15.307a2.637 2.637 0 0 1 1.171-2.194l6.194-4.166c.7-.48 1.602-.57 2.386-.24 2.247.965 4.862-.05 5.84-2.269.979-2.219-.05-4.801-2.297-5.767-2.248-.966-4.863.05-5.841 2.269a4.331 4.331 0 0 0-.368 1.867 2.488 2.488 0 0 1-1.097 2.145l-6.25 4.218c-.701.479-1.602.569-2.386.238a4.476 4.476 0 0 0-2.031-.35C2.23 11.274.472 13.04.29 15.251c-.1 2.418 1.804 4.459 4.253 4.558a4.501 4.501 0 0 0 1.834-.312 2.53 2.53 0 0 1 2.396.294l6.431 4.563a2.418 2.418 0 0 1 1.062 1.897c.012.5.116.994.308 1.457.573 1.398 2.304 2.73 3.833 2.827 2.448.153 4.558-1.683 4.713-4.1.017-.268.009-.536-.023-.802" mask="url(#b)"/>
        </g>
    </g>
</svg>
