<svg xmlns="http://www.w3.org/2000/svg" xmlns:xlink="http://www.w3.org/1999/xlink" width="225" height="42" viewBox="0 0 225 42">
    <defs>
        <path id="a" d="M.396.42h34.292V42H.396z"/>
    </defs>
    <g fill="none" fill-rule="evenodd">
        <path fill="#FFF" d="M73 8v25h-3.509V21.625H55.51V33H52V8h3.509v11.148H69.49V8zM92.288 23.143l-3.975-10.131a18.31 18.31 0 0 1-.372-1.052c-.129-.4-.253-.825-.37-1.277-.248.939-.502 1.72-.76 2.346l-3.976 10.114h9.453zm7.139 9.245h-2.65c-.307 0-.555-.075-.743-.225a1.386 1.386 0 0 1-.423-.574l-2.368-6.013H81.88l-2.368 6.013c-.07.209-.206.394-.407.555-.2.163-.448.244-.742.244h-2.65L85.839 7.485h3.463l10.125 24.903zM123.28 7.486v24.903h-1.713c-.271 0-.499-.047-.68-.14a1.722 1.722 0 0 1-.54-.469L105.7 13.012a22.587 22.587 0 0 1 .07 1.633V32.39h-3.004V7.486h1.767c.153 0 .283.009.389.025.106.018.2.047.282.088.083.04.165.098.248.173.082.075.17.17.265.287l14.648 18.75c-.023-.3-.044-.592-.061-.876a12.896 12.896 0 0 1-.027-.808V7.485h3.004zM147.524 27.244c.188 0 .353.075.494.226l1.36 1.442a10.81 10.81 0 0 1-3.772 2.764c-1.478.66-3.266.99-5.363.99-1.814 0-3.463-.31-4.947-.93-1.485-.619-2.751-1.488-3.8-2.606-1.048-1.118-1.86-2.46-2.438-4.023-.577-1.564-.865-3.284-.865-5.162 0-1.876.3-3.597.901-5.16.6-1.565 1.446-2.909 2.535-4.033 1.09-1.123 2.395-1.995 3.914-2.615 1.52-.62 3.199-.93 5.036-.93 1.803 0 3.393.284 4.771.852a12.044 12.044 0 0 1 3.64 2.311l-1.131 1.547a.92.92 0 0 1-.274.287.797.797 0 0 1-.45.113c-.212 0-.472-.113-.778-.34a11.906 11.906 0 0 0-1.201-.755c-.495-.278-1.114-.53-1.856-.756-.742-.226-1.655-.34-2.739-.34-1.308 0-2.503.224-3.587.67a7.824 7.824 0 0 0-2.8 1.938c-.784.845-1.393 1.876-1.829 3.093-.436 1.217-.654 2.59-.654 4.118 0 1.553.227 2.938.68 4.154.454 1.216 1.072 2.244 1.856 3.084A7.832 7.832 0 0 0 137 29.104c1.066.44 2.218.66 3.455.66.754 0 1.433-.044 2.04-.13a8.453 8.453 0 0 0 1.679-.409c.512-.185.99-.42 1.431-.703.442-.284.88-.623 1.317-1.017.2-.174.4-.26.6-.26M172.74 19.945c0-1.529-.213-2.901-.637-4.118-.424-1.217-1.025-2.244-1.802-3.084a7.823 7.823 0 0 0-2.828-1.938c-1.107-.452-2.344-.678-3.71-.678-1.355 0-2.586.226-3.693.678a7.904 7.904 0 0 0-2.836 1.938c-.784.84-1.388 1.867-1.812 3.084-.423 1.217-.636 2.59-.636 4.118 0 1.53.213 2.9.636 4.11.424 1.211 1.028 2.237 1.812 3.077a7.813 7.813 0 0 0 2.836 1.929c1.107.445 2.338.668 3.693.668 1.366 0 2.603-.223 3.71-.668a7.733 7.733 0 0 0 2.828-1.93c.777-.84 1.378-1.865 1.802-3.075.424-1.21.636-2.582.636-4.11m3.517 0c0 1.866-.301 3.577-.902 5.135-.6 1.558-1.449 2.899-2.545 4.023-1.095 1.123-2.412 1.996-3.948 2.615-1.538.62-3.237.93-5.098.93-1.862 0-3.558-.31-5.09-.93-1.53-.62-2.844-1.492-3.94-2.615-1.095-1.124-1.944-2.465-2.544-4.023-.601-1.558-.901-3.27-.901-5.136 0-1.865.3-3.577.901-5.134.6-1.559 1.449-2.903 2.544-4.032 1.096-1.13 2.41-2.008 3.94-2.633 1.532-.626 3.228-.939 5.09-.939 1.861 0 3.56.313 5.098.939 1.536.625 2.853 1.503 3.948 2.633 1.096 1.13 1.944 2.473 2.545 4.032.6 1.557.902 3.27.902 5.134M198.926 27.244c.188 0 .353.075.494.226l1.36 1.442a10.81 10.81 0 0 1-3.771 2.764c-1.48.66-3.267.99-5.363.99-1.815 0-3.463-.31-4.948-.93-1.484-.619-2.75-1.488-3.8-2.606-1.047-1.118-1.86-2.46-2.437-4.023-.578-1.564-.866-3.284-.866-5.162 0-1.876.3-3.597.901-5.16.6-1.565 1.446-2.909 2.535-4.033 1.09-1.123 2.395-1.995 3.914-2.615 1.52-.62 3.199-.93 5.036-.93 1.803 0 3.393.284 4.771.852a12.044 12.044 0 0 1 3.64 2.311l-1.13 1.547a.92.92 0 0 1-.274.287.797.797 0 0 1-.45.113c-.213 0-.473-.113-.779-.34a11.907 11.907 0 0 0-1.201-.755c-.495-.278-1.114-.53-1.855-.756-.742-.226-1.656-.34-2.74-.34-1.307 0-2.503.224-3.587.67a7.824 7.824 0 0 0-2.8 1.938c-.784.845-1.393 1.876-1.828 3.093-.437 1.217-.654 2.59-.654 4.118 0 1.553.227 2.938.68 4.154.453 1.216 1.071 2.244 1.855 3.084a7.832 7.832 0 0 0 2.774 1.921c1.066.44 2.218.66 3.455.66.754 0 1.433-.044 2.04-.13a8.453 8.453 0 0 0 1.679-.409c.512-.185.99-.42 1.432-.703.441-.284.88-.623 1.316-1.017.2-.174.4-.26.6-.26M208.167 18.399h1.29c.448 0 .807-.055 1.078-.165.271-.11.518-.298.742-.565l8.43-9.384c.234-.3.481-.51.741-.626.259-.115.577-.173.954-.173h2.898l-9.648 10.722a5.447 5.447 0 0 1-.68.686c-.218.18-.451.327-.698.443.318.104.606.258.866.46.259.204.512.468.76.792l10.071 11.8h-2.968c-.225 0-.415-.015-.575-.044a1.34 1.34 0 0 1-.724-.365 2.288 2.288 0 0 1-.256-.304l-8.729-9.889c-.236-.289-.489-.495-.76-.616-.271-.122-.683-.182-1.237-.182h-1.555v11.4h-3.41V7.485h3.41v10.913zM14.293 32.882c-6.553.006-11.871-5.214-11.877-11.66C2.41 14.775 7.72 9.545 14.274 9.54a11.997 11.997 0 0 1 7.24 2.418l.655-.442 1.465-.961c-5.989-5.068-15.02-4.4-20.173 1.49-5.152 5.89-4.474 14.772 1.515 19.839 5.259 4.45 13.007 4.547 18.38.23l-2.067-1.441a11.936 11.936 0 0 1-6.996 2.21M27.621 26.32a13.821 13.821 0 0 0 .132-9.874l-2.096 1.402c.703 2.291.67 4.739-.093 7.01l2.057 1.461z"/>
        <g transform="translate(7.649)">
            <mask id="b" fill="#fff">
                <use xlink:href="#a"/>
            </mask>
            <path fill="#FFF" d="M34.644 35.247c-.411-3.304-3.467-5.653-6.825-5.25a6.195 6.195 0 0 0-1.97.58 3.527 3.527 0 0 1-3.585-.28l-8.174-5.765a3.312 3.312 0 0 1-1.466-2.883v-.601a3.622 3.622 0 0 1 1.618-3.017l8.55-5.728a3.47 3.47 0 0 1 3.292-.331c3.103 1.328 6.713-.069 8.063-3.12 1.35-3.05-.07-6.601-3.172-7.929-3.102-1.329-6.712.068-8.062 3.12a5.934 5.934 0 0 0-.508 2.567 3.417 3.417 0 0 1-1.514 2.95l-8.628 5.8a3.468 3.468 0 0 1-3.293.326 6.208 6.208 0 0 0-2.804-.48C3.079 15.502.65 17.93.4 20.972c-.138 3.324 2.49 6.13 5.871 6.266a6.214 6.214 0 0 0 2.532-.429 3.503 3.503 0 0 1 3.307.404l8.878 6.275a3.324 3.324 0 0 1 1.465 2.609c.017.688.161 1.367.426 2.004.791 1.922 3.18 3.752 5.29 3.887 3.38.21 6.292-2.314 6.506-5.638a5.965 5.965 0 0 0-.032-1.103" mask="url(#b)"/>
        </g>
    </g>
</svg>
