<svg xmlns="http://www.w3.org/2000/svg" xmlns:xlink="http://www.w3.org/1999/xlink" width="153" height="153" viewBox="0 0 153 153">
    <defs>
        <filter id="a" width="116.6%" height="116.6%" x="-8.3%" y="-8.3%" filterUnits="objectBoundingBox">
            <feOffset dy="2" in="SourceAlpha" result="shadowOffsetOuter1"/>
            <feGaussianBlur in="shadowOffsetOuter1" result="shadowBlurOuter1" stdDeviation="2"/>
            <feColorMatrix in="shadowBlurOuter1" result="shadowMatrixOuter1" values="0 0 0 0 0 0 0 0 0 0 0 0 0 0 0 0 0 0 0.5 0"/>
            <feMerge>
                <feMergeNode in="shadowMatrixOuter1"/>
                <feMergeNode in="SourceGraphic"/>
            </feMerge>
        </filter>
        <path id="b" d="M.355.462h117.383V145H.355z"/>
    </defs>
    <g fill="none" fill-rule="evenodd" filter="url(#a)" transform="translate(4 2)">
        <path fill="#89C6E4" d="M48.986 113.623C26.526 113.64 8.3 95.458 8.28 73.007 8.26 50.558 26.455 32.343 48.92 32.326a40.685 40.685 0 0 1 24.815 8.416l2.244-1.539L81 35.856c-20.525-17.65-51.48-15.327-69.14 5.188-17.656 20.514-15.332 51.451 5.193 69.1 18.025 15.5 44.58 15.838 62.992.8l-7.082-5.02a40.446 40.446 0 0 1-23.977 7.699M93.775 90a49.615 49.615 0 0 0 .435-34l-6.903 4.83A41.15 41.15 0 0 1 87 84.97L93.775 90z"/>
        <g transform="translate(27)">
            <mask id="c" fill="#fff">
                <use xlink:href="#b"/>
            </mask>
            <path fill="#009ED6" d="M117.587 121.524c-1.407-11.482-11.867-19.651-23.363-18.246a20.964 20.964 0 0 0-6.74 2.012 11.919 11.919 0 0 1-12.274-.97L47.23 84.277a11.572 11.572 0 0 1-5.016-10.022v-2.088a12.643 12.643 0 0 1 5.535-10.488l29.267-19.91a11.723 11.723 0 0 1 11.271-1.153c10.62 4.618 22.977-.237 27.598-10.843 4.624-10.606-.238-22.948-10.856-27.564-10.62-4.62-22.975.236-27.598 10.844a20.906 20.906 0 0 0-1.737 8.923 11.935 11.935 0 0 1-5.184 10.255L40.977 52.392a11.715 11.715 0 0 1-11.271 1.135 20.96 20.96 0 0 0-9.6-1.669C9.539 52.888 1.229 61.331.373 71.902-.1 83.459 8.898 93.21 20.47 93.684c2.96.12 5.915-.388 8.666-1.488a11.83 11.83 0 0 1 11.322 1.4l30.388 21.816a11.585 11.585 0 0 1 5.016 9.067c.057 2.393.55 4.753 1.455 6.967 2.71 6.68 10.888 13.044 18.112 13.512 11.568.728 21.536-8.045 22.267-19.6a21.03 21.03 0 0 0-.109-3.834" mask="url(#c)"/>
        </g>
    </g>
</svg>
