<svg xmlns="http://www.w3.org/2000/svg" xmlns:xlink="http://www.w3.org/1999/xlink" width="130" height="130" viewBox="0 0 130 130">
    <defs>
        <path id="a" d="M.552.979H78.03v68.202H.552z"/>
        <path id="c" d="M0 94h119V1H0z"/>
    </defs>
    <g fill="none" fill-rule="evenodd">
        <path stroke="#FFF" d="M.569 129.87H129.87V.571H.569z"/>
        <g transform="translate(5 24)">
            <path fill="#00AEED" d="M47.327 2h66.346C116.063 2 118 3.927 118 6.305v57.391c0 2.378-1.937 4.304-4.327 4.304H47.327C44.938 68 43 66.074 43 63.696V6.305C43 3.927 44.938 2 47.327 2"/>
            <g transform="translate(41)">
                <mask id="b" fill="#fff">
                    <use xlink:href="#a"/>
                </mask>
                <path fill="#003564" d="M72.291.978H6.292c-3.17 0-5.74 2.546-5.74 5.684v34.101h2.871V6.662c0-1.57 1.284-2.841 2.87-2.841H72.29c1.586 0 2.87 1.271 2.87 2.84v56.836c0 1.57-1.284 2.842-2.87 2.842H33.028v2.842h39.263c3.17 0 5.74-2.545 5.74-5.684V6.662c0-3.138-2.57-5.684-5.74-5.684" mask="url(#b)"/>
            </g>
            <path fill="#FFDC28" d="M52.873 42.85c.37.274.82.421 1.28.42H65.69c.242 0 .437.194.437.433v2h-1.992a1.82 1.82 0 0 0-1.764 1.874 1.82 1.82 0 0 0 1.764 1.747h1.992v2.378c0 .24-.195.433-.437.433H54.182c-.723 0-1.309-.58-1.309-1.297v-7.987zm13.254 5.61h-1.992a.951.951 0 0 1-.909-.992.953.953 0 0 1 .91-.901h1.991v1.892zM52 41.107v9.73c0 1.194.978 2.162 2.182 2.162H65.69c.725 0 1.31-.581 1.31-1.298v-8c0-.716-.585-1.296-1.31-1.296H54.154a1.276 1.276 0 0 1-1.229-1.323 1.277 1.277 0 0 1 1.229-1.219h7.828c.24 0 .436.195.436.433v.865c0 .24.195.433.437.433a.434.434 0 0 0 .436-.433v-.865c0-.717-.586-1.297-1.31-1.297h-7.827A2.147 2.147 0 0 0 52 41.085v.023z"/>
            <path stroke="#FFDC28" stroke-width=".5" d="M52.873 42.85c.37.274.82.421 1.28.42H65.69c.242 0 .437.194.437.433v2h-1.992a1.82 1.82 0 0 0-1.764 1.874 1.82 1.82 0 0 0 1.764 1.747h1.992v2.378c0 .24-.195.433-.437.433H54.182c-.723 0-1.309-.58-1.309-1.297v-7.987zm13.254 5.61h-1.992a.951.951 0 0 1-.909-.992.953.953 0 0 1 .91-.901h1.991v1.892zM52 41.107v9.73c0 1.194.978 2.162 2.182 2.162H65.69c.725 0 1.31-.581 1.31-1.298v-8c0-.716-.585-1.296-1.31-1.296H54.154a1.276 1.276 0 0 1-1.229-1.323 1.277 1.277 0 0 1 1.229-1.219h7.828c.24 0 .436.195.436.433v.865c0 .24.195.433.437.433a.434.434 0 0 0 .436-.433v-.865c0-.717-.586-1.297-1.31-1.297h-7.827A2.147 2.147 0 0 0 52 41.085v.023z"/>
            <path fill="#00EFD1" d="M28.212 68.511c.003 9.551 7.748 17.293 17.3 17.289 9.552-.003 17.293-7.75 17.289-17.3-.003-9.552-7.748-17.291-17.3-17.29-9.548.011-17.285 7.754-17.29 17.301m-7.211 0C20.993 54.98 31.957 44.007 45.488 44 59.02 43.993 69.995 54.957 70 68.488 70.007 82.018 59.043 92.993 45.513 93H45.5C31.975 92.999 21.008 82.037 21 68.511"/>
            <path fill="#00AEED" d="M35.285 69.006c0 5.476 4.57 9.917 10.21 9.917 5.637 0 10.208-4.44 10.208-9.917 0-5.476-4.571-9.917-10.208-9.917-5.636.007-10.203 4.443-10.21 9.917m-7.285 0C27.996 59.618 35.83 52.003 45.495 52 55.16 51.997 62.997 59.606 63 68.994c.004 9.389-7.829 17.003-17.494 17.006h-.011C35.837 85.989 28.012 78.386 28 69.006"/>
            <path fill="#00EFD1" d="M43.148 69.012a2.859 2.859 0 1 0 0-.004v.004zm-7.148 0C35.993 63.49 40.467 59.007 45.988 59c5.523-.005 10.005 4.467 10.012 9.99.007 5.521-4.466 10.003-9.988 10.01H46c-5.516-.008-9.985-4.473-10.001-9.988z"/>
            <path fill="#FF5869" d="M43 69.006A3 3 0 1 1 46.006 72h-.012A3 3 0 0 1 43 69.006"/>
            <path fill="#FFDC28" d="M12.281 63L16 68.965H5.765L5.742 69 2 63zM16 69.035L12.281 75H2l3.742-6 .022.035z"/>
            <path fill="#003564" d="M45.495 45.352c-12.785.004-23.146 10.37-23.142 23.154.004 12.785 10.37 23.147 23.154 23.142 12.78-.004 23.138-10.362 23.143-23.142-.015-12.781-10.374-23.14-23.155-23.154m0 48.648C31.412 93.996 19.997 82.577 20 68.494 20.004 54.411 31.424 42.996 45.507 43 59.59 43.003 71.004 54.424 71 68.506 70.982 82.584 59.572 93.989 45.495 94"/>
            <path fill="#003564" d="M45.495 53.308c-8.908.003-16.127 7.032-16.123 15.698.003 8.668 7.227 15.691 16.134 15.688 8.903-.004 16.12-7.025 16.123-15.688-.007-8.666-7.227-15.691-16.134-15.698m0 33.692c-10.217-.003-18.5-8.064-18.495-18.005.003-9.94 8.29-17.998 18.506-17.995 10.217.004 18.497 8.067 18.494 18.006-.01 9.939-8.292 17.99-18.505 17.994"/>
            <path fill="#003564" d="M45.994 60.313a8.687 8.687 0 0 0-8.681 8.693 8.687 8.687 0 0 0 8.693 8.681 8.686 8.686 0 0 0 8.681-8.681 8.701 8.701 0 0 0-8.693-8.693m0 19.687C39.92 79.997 34.996 75.07 35 68.994 35.003 62.92 39.93 57.997 46.006 58c6.074.004 10.997 4.931 10.994 11.006-.01 6.07-4.935 10.99-11.006 10.994"/>
            <path fill="#003564" d="M45.994 67.329a1.671 1.671 0 1 0 .01 0h-.01zm0 5.671a4 4 0 1 1 .004 0h-.004z"/>
            <path fill="#003564" d="M45.79 70H15.21C14.543 70 14 69.552 14 69s.543-1 1.211-1H45.79c.668 0 1.21.448 1.21 1s-.542 1-1.21 1"/>
            <path fill="#003564" d="M4.187 73.78h7.369l2.265-3.563H6.458L4.187 73.78zM12.189 76H2.139C1.512 76 1 75.503 1 74.89c0-.206.058-.41.171-.585l3.658-5.75c.214-.334.586-.542.99-.555h10.006c.424-.001.816.22 1.025.578.208.355.199.789-.021 1.133l-.022.034-3.647 5.733a1.144 1.144 0 0 1-.971.522z"/>
            <path fill="#003564" d="M6.45 67.78h7.364l-2.265-3.56H4.184l2.265 3.56zM15.861 70H5.817c-.375 0-.725-.18-.938-.482l-3.708-5.823a1.094 1.094 0 0 1 .367-1.528c.18-.11.39-.167.602-.167h10.042c.396 0 .763.2.97.527l3.632 5.714-.924.604.931-.596.023.034c.345.511.196 1.199-.328 1.534a1.162 1.162 0 0 1-.624.183z"/>
            <mask id="d" fill="#fff">
                <use xlink:href="#c"/>
            </mask>
            <path fill="#003564" d="M12 35h9v-2h-9zM22 43h9v-2h-9zM8 35h2v-2H8zM5 52h9v-2H5zM0 52h2v-2H0z" mask="url(#d)"/>
            <path fill="#FFDC28" d="M52.873 16.85c.37.273.82.42 1.28.419H65.69c.242 0 .437.194.437.433v2h-1.992a1.818 1.818 0 0 0-1.764 1.874 1.82 1.82 0 0 0 1.764 1.747h1.992v2.38c0 .238-.195.432-.437.432H54.182a1.303 1.303 0 0 1-1.309-1.298V16.85zm13.254 5.61h-1.992a.952.952 0 0 1-.909-.992.952.952 0 0 1 .91-.901h1.991v1.892zM52 15.106v9.73c0 1.195.978 2.163 2.182 2.163H65.69c.725 0 1.31-.582 1.31-1.298v-8c0-.716-.585-1.297-1.31-1.297H54.154a1.275 1.275 0 0 1-1.229-1.322 1.277 1.277 0 0 1 1.229-1.219h7.828c.24 0 .436.194.436.433v.865c0 .238.195.433.437.433a.435.435 0 0 0 .436-.433v-.865c0-.717-.586-1.297-1.31-1.297h-7.827c-1.17 0-2.125.925-2.154 2.084v.023z" mask="url(#d)"/>
            <path stroke="#FFDC28" stroke-width=".5" d="M52.873 16.85c.37.273.82.42 1.28.419H65.69c.242 0 .437.194.437.433v2h-1.992a1.818 1.818 0 0 0-1.764 1.874 1.82 1.82 0 0 0 1.764 1.747h1.992v2.38c0 .238-.195.432-.437.432H54.182a1.303 1.303 0 0 1-1.309-1.298V16.85zm13.254 5.61h-1.992a.952.952 0 0 1-.909-.992.952.952 0 0 1 .91-.901h1.991v1.892zM52 15.106v9.73c0 1.195.978 2.163 2.182 2.163H65.69c.725 0 1.31-.582 1.31-1.298v-8c0-.716-.585-1.297-1.31-1.297H54.154a1.275 1.275 0 0 1-1.229-1.322 1.277 1.277 0 0 1 1.229-1.219h7.828c.24 0 .436.194.436.433v.865c0 .238.195.433.437.433a.435.435 0 0 0 .436-.433v-.865c0-.717-.586-1.297-1.31-1.297h-7.827c-1.17 0-2.125.925-2.154 2.084v.023z" mask="url(#d)"/>
            <path fill="#FFDC28" d="M72.874 16.85c.37.273.819.42 1.28.419H85.69c.24 0 .436.194.436.433v2h-1.991c-1.01.034-1.8.873-1.765 1.874a1.82 1.82 0 0 0 1.765 1.747h1.991v2.38c0 .238-.195.432-.436.432H74.182a1.303 1.303 0 0 1-1.308-1.298V16.85zm13.253 5.61h-1.991a.95.95 0 0 1-.91-.992.95.95 0 0 1 .91-.901h1.991v1.892zM72 15.106v9.73c0 1.195.978 2.163 2.182 2.163h11.509c.723 0 1.309-.582 1.309-1.298v-8c0-.716-.586-1.297-1.31-1.297H74.155a1.276 1.276 0 0 1-1.229-1.322 1.277 1.277 0 0 1 1.229-1.219h7.828c.241 0 .436.194.436.433v.865c0 .238.195.433.437.433.24 0 .436-.195.436-.433v-.865c0-.717-.586-1.297-1.31-1.297h-7.827c-1.17 0-2.124.925-2.154 2.084v.023z" mask="url(#d)"/>
            <path stroke="#FFDC28" stroke-width=".5" d="M72.874 16.85c.37.273.819.42 1.28.419H85.69c.24 0 .436.194.436.433v2h-1.991c-1.01.034-1.8.873-1.765 1.874a1.82 1.82 0 0 0 1.765 1.747h1.991v2.38c0 .238-.195.432-.436.432H74.182a1.303 1.303 0 0 1-1.308-1.298V16.85zm13.253 5.61h-1.991a.95.95 0 0 1-.91-.992.95.95 0 0 1 .91-.901h1.991v1.892zM72 15.106v9.73c0 1.195.978 2.163 2.182 2.163h11.509c.723 0 1.309-.582 1.309-1.298v-8c0-.716-.586-1.297-1.31-1.297H74.155a1.276 1.276 0 0 1-1.229-1.322 1.277 1.277 0 0 1 1.229-1.219h7.828c.241 0 .436.194.436.433v.865c0 .238.195.433.437.433.24 0 .436-.195.436-.433v-.865c0-.717-.586-1.297-1.31-1.297h-7.827c-1.17 0-2.124.925-2.154 2.084v.023z" mask="url(#d)"/>
            <path fill="#FFDC28" d="M94.873 16.85c.37.273.82.42 1.28.419h11.537c.242 0 .437.194.437.433v2h-1.992a1.818 1.818 0 0 0-1.764 1.874 1.82 1.82 0 0 0 1.764 1.747h1.992v2.38c0 .238-.195.432-.437.432H96.182a1.303 1.303 0 0 1-1.309-1.298V16.85zm13.254 5.61h-1.992a.951.951 0 0 1-.909-.992.952.952 0 0 1 .91-.901h1.991v1.892zM94 15.106v9.73c0 1.195.978 2.163 2.182 2.163h11.508c.725 0 1.31-.582 1.31-1.298v-8c0-.716-.585-1.297-1.31-1.297H96.154a1.275 1.275 0 0 1-1.229-1.322 1.277 1.277 0 0 1 1.229-1.219h7.828c.24 0 .436.194.436.433v.865c0 .238.195.433.437.433.24 0 .436-.195.436-.433v-.865c0-.717-.586-1.297-1.31-1.297h-7.827c-1.17 0-2.125.925-2.154 2.084v.023z" mask="url(#d)"/>
            <path stroke="#FFDC28" stroke-width=".5" d="M94.873 16.85c.37.273.82.42 1.28.419h11.537c.242 0 .437.194.437.433v2h-1.992a1.818 1.818 0 0 0-1.764 1.874 1.82 1.82 0 0 0 1.764 1.747h1.992v2.38c0 .238-.195.432-.437.432H96.182a1.303 1.303 0 0 1-1.309-1.298V16.85zm13.254 5.61h-1.992a.951.951 0 0 1-.909-.992.952.952 0 0 1 .91-.901h1.991v1.892zM94 15.106v9.73c0 1.195.978 2.163 2.182 2.163h11.508c.725 0 1.31-.582 1.31-1.298v-8c0-.716-.585-1.297-1.31-1.297H96.154a1.275 1.275 0 0 1-1.229-1.322 1.277 1.277 0 0 1 1.229-1.219h7.828c.24 0 .436.194.436.433v.865c0 .238.195.433.437.433.24 0 .436-.195.436-.433v-.865c0-.717-.586-1.297-1.31-1.297h-7.827c-1.17 0-2.125.925-2.154 2.084v.023z" mask="url(#d)"/>
            <path fill="#FFDC28" d="M82.28 42.776c.543.409 1.202.63 1.878.629h16.922c.352 0 .64.291.64.65v2.999h-2.923c-1.479.052-2.638 1.31-2.587 2.81.048 1.427 1.179 2.573 2.587 2.622h2.922v3.569a.644.644 0 0 1-.64.648H84.2c-1.06 0-1.92-.871-1.92-1.946V42.776zm19.44 8.413h-2.923a1.412 1.412 0 0 1-1.332-1.487 1.41 1.41 0 0 1 1.332-1.35h2.922v2.837zM81 40.161v14.596C81 56.547 82.432 58 84.2 58h16.88c1.06 0 1.92-.87 1.92-1.945v-12c0-1.076-.86-1.946-1.92-1.946H84.158c-1.038-.044-1.845-.933-1.802-1.985a1.895 1.895 0 0 1 1.802-1.827H95.64c.353 0 .64.29.64.648v1.297c0 .36.286.65.639.65.353 0 .64-.29.64-.65v-1.297c0-1.074-.858-1.945-1.919-1.945H84.158c-1.715.001-3.116 1.387-3.158 3.126v.035z" mask="url(#d)"/>
            <path stroke="#FFDC28" stroke-width="1.5" d="M82.28 42.776c.543.409 1.202.63 1.878.629h16.922c.352 0 .64.291.64.65v2.999h-2.923c-1.479.052-2.638 1.31-2.587 2.81.048 1.427 1.179 2.573 2.587 2.622h2.922v3.569a.644.644 0 0 1-.64.648H84.2c-1.06 0-1.92-.871-1.92-1.946V42.776zm19.44 8.413h-2.923a1.412 1.412 0 0 1-1.332-1.487 1.41 1.41 0 0 1 1.332-1.35h2.922v2.837zM81 40.161v14.596C81 56.547 82.432 58 84.2 58h16.88c1.06 0 1.92-.87 1.92-1.945v-12c0-1.076-.86-1.946-1.92-1.946H84.158c-1.038-.044-1.845-.933-1.802-1.985a1.895 1.895 0 0 1 1.802-1.827H95.64c.353 0 .64.29.64.648v1.297c0 .36.286.65.639.65.353 0 .64-.29.64-.65v-1.297c0-1.074-.858-1.945-1.919-1.945H84.158c-1.715.001-3.116 1.387-3.158 3.126v.035z" mask="url(#d)"/>
        </g>
    </g>
</svg>
