<svg xmlns="http://www.w3.org/2000/svg" width="38" height="40" viewBox="0 0 38 40">
    <path fill="#FF1654" fill-rule="evenodd" stroke="#FF1654" d="M28.829 1.024c-3.549-.27-7.725 1.733-9.62 6.626-1.865-4.809-5.933-6.777-9.39-6.52C5.43 1.464 1 5.222 1 12.86c0 13.995 17.026 25.415 17.753 25.897a.832.832 0 0 0 .962-.035c.723-.561 17.702-13.853 17.702-26.843 0-7.007-4.451-10.539-8.588-10.855zm-9.657 36.01C16.374 35.044 2.655 24.695 2.655 12.858c0-6.578 3.662-9.802 7.29-10.08.176-.014.35-.02.527-.02 3.39 0 7.031 2.494 7.919 8.266a.826.826 0 1 0 1.635 0c.949-6.156 5.069-8.626 8.676-8.352 3.514.27 7.06 3.22 7.06 9.206 0 11.023-13.84 22.903-16.59 25.154z"/>
</svg>
