<svg xmlns="http://www.w3.org/2000/svg" xmlns:xlink="http://www.w3.org/1999/xlink" width="130" height="130" viewBox="0 0 130 130">
    <defs>
        <path id="a" d="M.298.988H82.05v82.05H.298z"/>
        <path id="c" d="M0 .825h57.253v47.07H0z"/>
    </defs>
    <g fill="none" fill-rule="evenodd">
        <path stroke="#FFF" d="M.569 129.87H129.87V.571H.569z"/>
        <g transform="translate(41.053 22.526)">
            <mask id="b" fill="#fff">
                <use xlink:href="#a"/>
            </mask>
            <path fill="#003564" d="M81.5 41.26l-5.176-7.103 1.762-8.61a2.875 2.875 0 0 0-1.546-3.156l-7.885-3.882-2.439-8.444c-.363-1.257-1.527-2.134-2.835-2.075l-8.786.223-6.085-6.341a2.875 2.875 0 0 0-3.475-.52l-7.674 4.283-8.334-2.79A2.875 2.875 0 0 0 25.707 4l-4.806 7.36-8.675 1.403a2.876 2.876 0 0 0-2.401 2.564l-.836 8.75-7.03 5.276a2.876 2.876 0 0 0-.936 3.386l3.327 8.135L.576 48.81a2.877 2.877 0 0 0 .746 3.434L8.048 57.9l.346 8.782a2.878 2.878 0 0 0 2.256 2.695l8.585 1.884 4.39 7.613a2.874 2.874 0 0 0 3.25 1.337l8.476-2.322 7.426 4.702a2.879 2.879 0 0 0 3.501-.327l6.427-5.993 8.76.711a2.865 2.865 0 0 0 2.945-1.914l2.905-8.296 8.086-3.438a2.874 2.874 0 0 0 1.719-3.065l-1.283-8.693L81.4 44.77a2.875 2.875 0 0 0 .1-3.512" mask="url(#b)"/>
        </g>
        <path fill="#00AEED" d="M114.312 72.256a3.119 3.119 0 0 0-.678 2.438l1.252 8.448-7.888 3.34a3.128 3.128 0 0 0-1.737 1.848l-2.832 8.059-8.544-.694a3.152 3.152 0 0 0-2.4.832l-6.268 5.824-7.242-4.568a3.13 3.13 0 0 0-2.512-.372l-8.268 2.256-4.282-7.397a3.138 3.138 0 0 0-2.05-1.495l-8.372-1.831-.34-8.533a3.13 3.13 0 0 0-1.116-2.272l-6.561-5.497 3.68-7.71c.379-.797.404-1.716.07-2.532L44.979 54.5l6.857-5.127a3.125 3.125 0 0 0 1.242-2.206l.816-8.498 8.46-1.365a3.144 3.144 0 0 0 2.13-1.38l4.688-7.149 8.13 2.709c.84.279 1.758.195 2.529-.234l7.484-4.161 5.935 6.162c.612.634 1.433.999 2.35.961l8.568-.217 2.38 8.2c.246.847.838 1.55 1.632 1.94l7.69 3.773-1.721 8.366c-.176.861.02 1.76.54 2.47l5.048 6.901-5.425 6.612z"/>
        <path fill="#003564" d="M97.976 59.233a1.925 1.925 0 0 0-1.55-1.316l-8.704-1.274-3.894-7.95a1.922 1.922 0 0 0-1.722-1.079c-.732 0-1.397.419-1.723 1.08l-3.893 7.95-8.706 1.273a1.923 1.923 0 0 0-1.55 1.316c-.225.7-.038 1.47.487 1.984l6.3 6.188-1.489 8.738a1.947 1.947 0 0 0 .764 1.891 1.907 1.907 0 0 0 2.024.147l7.786-4.126 7.787 4.127a1.908 1.908 0 0 0 2.021-.148 1.942 1.942 0 0 0 .764-1.891l-1.487-8.738 6.3-6.188c.523-.514.711-1.284.485-1.984"/>
        <path fill="#FFDC28" d="M88.393 65.88a2.328 2.328 0 0 0-.666 2.053l1.208 7.05-6.322-3.33a2.308 2.308 0 0 0-2.156 0l-6.321 3.33 1.207-7.05a2.328 2.328 0 0 0-.666-2.052l-5.116-4.993 7.067-1.028a2.32 2.32 0 0 0 1.745-1.27l3.162-6.415 3.16 6.415a2.32 2.32 0 0 0 1.746 1.27l7.068 1.028-5.116 4.991z"/>
        <path fill="#FFF" d="M9.123 86.386l27.371 31.93 27.366-31.93z"/>
        <path fill="#00EFD1" d="M9.123 86.386l27.371 31.93 27.366-31.93zM18.287 72.702L9.123 86.386H63.86l-9.122-13.684z"/>
        <path fill="#FFF" d="M27.368 86.386l9.122-13.684 9.124 13.684z"/>
        <path fill="#00AEED" d="M45.614 86.386l9.123-13.684 9.123 13.684zM9.123 86.386l9.121-13.684 9.124 13.684zM45.614 87.526H27.368l9.123 30.79z"/>
        <path fill="#F26F53" d="M18.816 105.772a6.273 6.273 0 0 0-6.272-6.272 6.273 6.273 0 0 0 6.272-6.272 6.272 6.272 0 0 0 6.272 6.272 6.272 6.272 0 0 0-6.272 6.272M59.298 72.702a4.56 4.56 0 0 0-4.561-4.56 4.562 4.562 0 0 0 4.561-4.563 4.563 4.563 0 0 0 4.562 4.563 4.561 4.561 0 0 0-4.562 4.56"/>
        <g transform="translate(7.982 71.561)">
            <mask id="d" fill="#fff">
                <use xlink:href="#c"/>
            </mask>
            <path fill="#003564" d="M28.63 42.749L20.953 16.85h15.352l-7.677 25.898zM10.327 3.942l7.1 10.699H3.195l7.133-10.699zM30.7 3.036h14.196l-7.098 10.696L30.7 3.036zm-2.07.91l7.097 10.695H21.533l7.096-10.695zm-9.151 9.757l-7.08-10.667h14.16l-7.08 10.667zm34.585.938H39.868l7.1-10.695 7.096 10.695zM47.9 1.324a1.125 1.125 0 0 0-.934-.499H10.33c-.375 0-.726.187-.933.497L.213 15.097a1.095 1.095 0 0 0 .064 1.378l4.654 5.25c.407.46 1.114.506 1.579.105.464-.403.511-1.1.104-1.56l-3.03-3.419h15.04l7.557 25.5-8.539-9.637a1.129 1.129 0 0 0-1.579-.104 1.097 1.097 0 0 0-.104 1.56l11.83 13.347c.211.24.518.378.841.378.323 0 .63-.137.84-.378l12.596-14.214a1.096 1.096 0 0 0-.105-1.56 1.126 1.126 0 0 0-1.578.105L31.078 42.35l7.558-25.498H53.67L46.716 24.7c-.407.46-.36 1.158.106 1.559.21.183.473.273.735.273.312 0 .62-.127.841-.376l8.578-9.68c.331-.376.369-.92.094-1.336L47.9 1.324z" mask="url(#d)"/>
        </g>
        <path fill="#003564" d="M18.816 101.904a7.466 7.466 0 0 0-2.404-2.405 7.478 7.478 0 0 0 2.404-2.404 7.466 7.466 0 0 0 2.405 2.404 7.455 7.455 0 0 0-2.405 2.405m7.412-2.405a1.11 1.11 0 0 0-1.11-1.11 5.197 5.197 0 0 1-5.191-5.192 1.11 1.11 0 0 0-2.22 0 5.198 5.198 0 0 1-5.193 5.192 1.11 1.11 0 1 0 0 2.22 5.198 5.198 0 0 1 5.192 5.193 1.11 1.11 0 1 0 2.22 0 5.197 5.197 0 0 1 5.192-5.192 1.11 1.11 0 0 0 1.11-1.11M59.298 66.997c.326.433.71.818 1.145 1.144-.434.324-.819.71-1.145 1.144a5.674 5.674 0 0 0-1.144-1.144c.434-.326.82-.71 1.144-1.144m-4.56 2.285a3.423 3.423 0 0 1 3.42 3.42 1.141 1.141 0 0 0 2.28 0 3.424 3.424 0 0 1 3.421-3.42 1.141 1.141 0 0 0 0-2.282 3.425 3.425 0 0 1-3.42-3.422 1.14 1.14 0 0 0-2.281 0A3.425 3.425 0 0 1 54.738 67a1.141 1.141 0 0 0 0 2.282M52.457 100.07c-.3 0-.594.121-.807.335a1.148 1.148 0 0 0-.334.806c0 .299.122.593.334.805.212.213.506.335.807.335a1.145 1.145 0 0 0 1.14-1.14 1.144 1.144 0 0 0-1.14-1.14"/>
    </g>
</svg>
