<svg xmlns="http://www.w3.org/2000/svg" xmlns:xlink="http://www.w3.org/1999/xlink" width="130" height="130" viewBox="0 0 130 130">
    <defs>
        <path id="a" d="M.17.422h73.878V72.26H.17z"/>
    </defs>
    <g fill="none" fill-rule="evenodd">
        <path stroke="#FFF" d="M.569 129.87H129.87V.571H.569z"/>
        <path fill="#00AEED" d="M92.637 43L97 102H49l4.363-59"/>
        <path fill="#FFDC28" d="M50 9.159L53.158 6 70 22.842 66.841 26z"/>
        <path fill="#DADEE0" d="M67 26.2l3.2-3.2 4.8 4.8-3.2 3.2z"/>
        <path fill="#FFDC28" d="M80.839 25.14a5.154 5.154 0 0 0-4.232-4.24 5.154 5.154 0 0 0 4.232-4.24 5.154 5.154 0 0 0 4.231 4.24 5.154 5.154 0 0 0-4.231 4.24M90.36 16.66a5.155 5.155 0 0 0-4.232-4.24 5.155 5.155 0 0 0 4.233-4.24 5.152 5.152 0 0 0 4.231 4.24 5.152 5.152 0 0 0-4.231 4.24"/>
        <path fill="#FFA916" d="M76.607 11.36h-3.173V8.18h-2.116v3.18h-3.174v2.12h3.174v3.18h2.116v-3.18h3.173z"/>
        <path fill="#F26F53" d="M92.266 43.219H53.153L52.19 56.28h41.042z"/>
        <path fill="#F26F53" d="M53.005 44.99l.082 5.106a280.015 280.015 0 0 1 39.701-3.589l-.831-5.037-38.952 3.52z"/>
        <path fill="#0099D4" d="M107.475 45.396a279.821 279.821 0 0 0-69.532 0v-8.71a279.821 279.821 0 0 1 69.532 0v8.71z"/>
        <path fill="#003564" d="M53.333 7.56l15.43 15.462-1.676 1.68L51.655 9.241l1.678-1.682zm20.191 20.23l-1.678 1.682-3.264-3.27 1.677-1.682 3.265 3.27zm-2.426 3.931a1.06 1.06 0 0 0 1.496 0l3.174-3.18a1.063 1.063 0 0 0 0-1.5L54.08 5.311a1.058 1.058 0 0 0-1.496 0l-3.174 3.18a1.065 1.065 0 0 0 0 1.5l16.927 16.96 4.76 4.77z"/>
        <g transform="translate(35.6 31.92)">
            <mask id="b" fill="#fff">
                <use xlink:href="#a"/>
            </mask>
            <path fill="#003564" d="M69.703 11.02a282.197 282.197 0 0 0-65.187 0V6.695a277.997 277.997 0 0 1 65.187 0v4.325zM18.927 22.184l.601-8.135a277.464 277.464 0 0 1 35.162 0l.603 8.135H18.927zm-3.378 45.722l3.056-41.368h37.01l3.056 41.368H15.549zm56.595-65.3a282.05 282.05 0 0 0-70.07 0 2.175 2.175 0 0 0-1.903 2.16v8.71a2.176 2.176 0 0 0 2.442 2.159c4.167-.52 8.348-.914 12.533-1.248l-4.11 55.535a2.174 2.174 0 0 0 2.172 2.338h47.803a2.175 2.175 0 0 0 2.172-2.338l-4.11-55.535c4.186.334 8.366.728 12.533 1.248a2.175 2.175 0 0 0 2.442-2.16V4.766a2.175 2.175 0 0 0-1.904-2.16z" mask="url(#b)"/>
        </g>
        <path fill="#003564" d="M80.839 22.415a6.232 6.232 0 0 0-1.511-1.514 6.213 6.213 0 0 0 1.51-1.514c.413.588.924 1.1 1.511 1.514a6.232 6.232 0 0 0-1.51 1.514m1.043-5.93a1.058 1.058 0 0 0-2.087 0 4.094 4.094 0 0 1-3.363 3.37 1.061 1.061 0 0 0 0 2.092 4.092 4.092 0 0 1 3.363 3.368 1.06 1.06 0 0 0 1.22.868c.446-.076.792-.425.867-.868a4.092 4.092 0 0 1 3.364-3.368 1.062 1.062 0 0 0 0-2.092 4.096 4.096 0 0 1-3.364-3.37M90.36 10.907a6.21 6.21 0 0 0 1.51 1.514 6.173 6.173 0 0 0-1.51 1.513 6.218 6.218 0 0 0-1.511-1.513 6.254 6.254 0 0 0 1.512-1.514m-4.408 2.56a4.096 4.096 0 0 1 3.364 3.368 1.057 1.057 0 0 0 2.086 0 4.094 4.094 0 0 1 3.364-3.369 1.06 1.06 0 0 0 0-2.091 4.093 4.093 0 0 1-3.364-3.368 1.059 1.059 0 0 0-2.086 0 4.094 4.094 0 0 1-3.364 3.368 1.062 1.062 0 0 0 0 2.091M71.318 8.18v3.18h-3.174v2.12h3.174v3.18h2.116v-3.18h3.173v-2.12h-3.173V8.18z"/>
        <path fill="#00EFD1" d="M41.647 106.565c-5.106 0-9.244-4.146-9.244-9.26 0-5.116 4.138-9.262 9.244-9.262 5.103 0 9.24 4.146 9.24 9.262 0 5.114-4.137 9.26-9.24 9.26zm23.105-4.63v-9.26h-5.227a18.407 18.407 0 0 0-1.968-4.764l3.697-3.704-6.537-6.55-3.696 3.705a18.333 18.333 0 0 0-4.753-1.973v-5.237h-9.244v5.237a18.311 18.311 0 0 0-4.752 1.973l-3.697-3.704-6.536 6.55 3.698 3.704a18.373 18.373 0 0 0-1.971 4.762H18.54v9.26h5.226a18.417 18.417 0 0 0 1.97 4.765l-3.698 3.703 6.537 6.55 3.696-3.705a18.327 18.327 0 0 0 4.753 1.972v5.238h9.244v-5.238a18.342 18.342 0 0 0 4.753-1.972l3.696 3.704 6.537-6.549-3.697-3.703a18.414 18.414 0 0 0 1.968-4.764h5.227z"/>
        <path fill="#FFF" d="M51.36 97.017c0 4.955-4.01 8.974-8.956 8.974-4.945 0-8.956-4.019-8.956-8.974 0-4.957 4.01-8.974 8.956-8.974s8.956 4.017 8.956 8.974"/>
        <path fill="#003564" d="M25.259 93.06c.393-1.533 1-3.002 1.803-4.366a1.544 1.544 0 0 0-.238-1.874l-2.606-2.612 4.358-4.367 2.606 2.613a1.54 1.54 0 0 0 1.871.237 16.842 16.842 0 0 1 4.358-1.806 1.543 1.543 0 0 0 1.154-1.494v-3.695h6.162v3.695c0 .704.476 1.318 1.155 1.494a16.88 16.88 0 0 1 4.356 1.806 1.539 1.539 0 0 0 1.872-.237l2.606-2.613 4.358 4.367-2.607 2.612a1.544 1.544 0 0 0-.236 1.874 16.973 16.973 0 0 1 1.802 4.366 1.54 1.54 0 0 0 1.49 1.157h3.689v6.174h-3.69c-.7 0-1.313.477-1.49 1.158a16.92 16.92 0 0 1-1.801 4.365 1.547 1.547 0 0 0 .236 1.876l2.607 2.611-4.358 4.366-2.606-2.612a1.539 1.539 0 0 0-1.872-.237 16.88 16.88 0 0 1-4.356 1.806 1.544 1.544 0 0 0-1.155 1.493v3.696h-6.162v-3.696c0-.702-.475-1.317-1.154-1.493a16.806 16.806 0 0 1-4.358-1.806 1.538 1.538 0 0 0-1.871.237l-2.606 2.612-4.358-4.366 2.606-2.611c.496-.5.595-1.27.238-1.876a16.924 16.924 0 0 1-1.803-4.365 1.54 1.54 0 0 0-1.49-1.158H20.08v-6.174h3.688a1.54 1.54 0 0 0 1.49-1.157m-2.648-1.93H18.54c-.85 0-1.54.692-1.54 1.544v9.26c0 .853.69 1.544 1.54 1.544h4.071a20.008 20.008 0 0 0 1.216 2.948l-2.876 2.883a1.547 1.547 0 0 0 0 2.183l6.535 6.55a1.541 1.541 0 0 0 2.18 0l2.877-2.884c.947.484 1.929.892 2.941 1.22v4.079c0 .851.69 1.543 1.541 1.543h9.242c.85 0 1.541-.692 1.541-1.543v-4.08a19.929 19.929 0 0 0 2.942-1.22l2.877 2.884a1.541 1.541 0 0 0 2.179 0l6.536-6.549c.6-.602.6-1.58 0-2.183l-2.878-2.883c.484-.95.89-1.934 1.216-2.946h4.073c.849 0 1.54-.693 1.54-1.545v-9.26c0-.853-.691-1.545-1.54-1.545H60.68a19.896 19.896 0 0 0-1.216-2.947l2.878-2.883c.6-.603.6-1.581 0-2.184l-6.536-6.549a1.541 1.541 0 0 0-2.18 0L50.75 79.45a19.919 19.919 0 0 0-2.942-1.218v-4.08c0-.851-.691-1.543-1.54-1.543h-9.243c-.851 0-1.54.692-1.54 1.543v4.08a19.919 19.919 0 0 0-2.942 1.218l-2.877-2.883a1.541 1.541 0 0 0-2.18 0l-6.535 6.55a1.547 1.547 0 0 0 0 2.183l2.876 2.883a20.098 20.098 0 0 0-1.216 2.948"/>
        <path fill="#003564" d="M41.647 89.587c4.252 0 7.7 3.456 7.7 7.717 0 4.262-3.448 7.717-7.7 7.717-4.254 0-7.703-3.455-7.703-7.717.004-4.26 3.45-7.713 7.703-7.717m0 18.522c5.955 0 10.782-4.837 10.782-10.804 0-5.968-4.827-10.804-10.782-10.804-5.957 0-10.784 4.836-10.784 10.804.006 5.964 4.83 10.798 10.784 10.804"/>
    </g>
</svg>
