<svg xmlns="http://www.w3.org/2000/svg" width="114" height="114" viewBox="0 0 114 114">
    <g fill="none" fill-rule="evenodd">
        <path stroke="#FFF" d="M.499 113.886h113.387V.501H.499z"/>
        <path fill="#00EFD1" d="M64.816 51.775h28.021V24.394H64.816z"/>
        <path fill="#535355" d="M22.602 51.345h25.247V26.097H22.602v25.248zm26.518 3.134H21.332a1.864 1.864 0 0 1-1.865-1.864V24.827c0-1.031.836-1.865 1.865-1.865H49.12c1.03 0 1.864.834 1.864 1.865v27.788c0 1.03-.835 1.864-1.864 1.864zM66.565 51.345h25.248V26.097H66.565v25.248zm26.518 3.134H65.295a1.864 1.864 0 0 1-1.865-1.864V24.827c0-1.031.834-1.865 1.865-1.865h27.788c1.03 0 1.864.834 1.864 1.865v27.788c0 1.03-.832 1.864-1.864 1.864zM22.602 92.698h25.247V67.449H22.602v25.249zm26.518 3.134H21.332a1.864 1.864 0 0 1-1.865-1.864V66.18c0-1.031.836-1.865 1.865-1.865H49.12c1.03 0 1.864.834 1.864 1.865v27.788c0 1.03-.835 1.864-1.864 1.864zM66.565 92.698h25.248V67.449H66.565v25.249zm26.518 3.134H65.295a1.864 1.864 0 0 1-1.865-1.864V66.18c0-1.031.834-1.865 1.865-1.865h27.788c1.03 0 1.864.834 1.864 1.865v27.788c0 1.03-.832 1.864-1.864 1.864z"/>
        <path fill="#535355" d="M35.243 37.556a1.18 1.18 0 0 0-1.18 1.18 1.179 1.179 0 1 0 1.179-1.18m0 6.085a4.913 4.913 0 0 1-4.907-4.905 4.913 4.913 0 0 1 4.908-4.908 4.913 4.913 0 0 1 4.906 4.908 4.91 4.91 0 0 1-4.906 4.905M79.206 37.556c-.648 0-1.18.529-1.18 1.18a1.18 1.18 0 0 0 1.18 1.178 1.18 1.18 0 0 0 1.179-1.178c0-.651-.53-1.18-1.18-1.18m0 6.085a4.91 4.91 0 0 1-4.904-4.905c0-2.707 2.2-4.908 4.905-4.908a4.912 4.912 0 0 1 4.906 4.908 4.91 4.91 0 0 1-4.906 4.905M79.206 78.882a1.18 1.18 0 0 0-1.18 1.178c0 .65.53 1.18 1.18 1.18.649 0 1.179-.53 1.179-1.18 0-.65-.53-1.178-1.18-1.178m0 6.085a4.911 4.911 0 0 1-4.904-4.908 4.91 4.91 0 0 1 4.905-4.906 4.911 4.911 0 0 1 4.906 4.906 4.912 4.912 0 0 1-4.906 4.908M35.243 78.882a1.18 1.18 0 0 0 0 2.358 1.18 1.18 0 0 0 0-2.358m0 6.085a4.914 4.914 0 0 1-4.908-4.908 4.912 4.912 0 0 1 4.908-4.906 4.912 4.912 0 0 1 4.906 4.906 4.913 4.913 0 0 1-4.906 4.908"/>
        <path fill="#535355" d="M36.229 79.072h41.988v-39.35H36.229v39.35zm42.977 2.851H35.243a1.864 1.864 0 0 1-1.865-1.865V38.736c0-1.03.835-1.864 1.865-1.864h43.963c1.029 0 1.863.834 1.863 1.864v41.322a1.863 1.863 0 0 1-1.863 1.865z"/>
        <path fill="#FFF" d="M75.81 43.766c.322.245.691.407 1.057.57a6.29 6.29 0 0 0 1.14.366c.406.082.812.121 1.221.121 1.585 0 3.171-.65 4.272-1.79a6.04 6.04 0 0 0 1.832-4.314 5.976 5.976 0 0 0-1.832-4.314c-1.383-1.423-3.502-2.075-5.493-1.667-.369.081-.774.163-1.14.325a8.575 8.575 0 0 0-1.057.569 5.715 5.715 0 0 0-.938.773 6.1 6.1 0 0 0-1.792 4.314c0 1.588.652 3.175 1.792 4.314.286.286.612.528.938.733"/>
    </g>
</svg>
