<svg xmlns="http://www.w3.org/2000/svg" width="114" height="114" viewBox="0 0 114 114">
    <g fill="none" fill-rule="evenodd">
        <path stroke="#FFF" d="M.499 113.886h113.387V.501H.499z"/>
        <path fill="#00EFD1" d="M37.476 71.065l2.965 9.06 5.93 6.01 6.834 4.365 5.366 1.152-10.548 10.541s-7.006-.367-7.665-1.09c-.658-.722-6.259-5.334-6.259-5.334s-5.512-7.905-5.885-8.152c-.373-.247-1.773-4.94-1.773-4.94l1.4-3.707 9.635-7.905z"/>
        <path fill="#535355" d="M61.015 90.078a21.742 21.742 0 0 1-11.63-3.359 7.991 7.991 0 0 0 2.218-.577c2.854-1.213 4.493-3.908 4.496-7.392a1.552 1.552 0 0 0-3.102-.002c-.002 2.213-.927 3.825-2.607 4.54-2.013.855-4.66.258-6.482-1.446-3.233-4.028-4.92-9-4.78-14.25.51-8.296-4.296-15.632-6.389-18.405a1.517 1.517 0 0 1-.178-1.545 3.884 3.884 0 0 1 2.902-2.257 3.985 3.985 0 0 1 3.593 1.151c4.554 4.633 6.215 9.69 7.24 14.026a1.552 1.552 0 1 0 3.018-.713 48.784 48.784 0 0 0-.974-3.564c3.487-.111 7.714-2.186 10.248-4.72l20.567-20.566c1.231-1.232 3.377-1.232 4.606 0 .614.616.954 1.433.954 2.303 0 .87-.34 1.688-.954 2.303L70.517 48.849a.012.012 0 0 0-.005.005l-7.317 7.318a6.366 6.366 0 0 0 0 8.992 6.317 6.317 0 0 0 4.496 1.862c.164 0 .326-.011.488-.023-.13 1.779.457 3.602 1.815 4.96v.001a6.321 6.321 0 0 0 3.365 1.757 6.334 6.334 0 0 0-.628 2.745c0 1.698.661 3.295 1.863 4.496v.001a6.317 6.317 0 0 0 2.942 1.664l-1.039 1.038a21.747 21.747 0 0 1-15.482 6.413zm-13.368 11.01c-1.316.101-6.136-.079-12.736-6.679-6.62-6.62-6.779-11.449-6.68-12.733l8.321-8.324c.98 4.699 3.294 9.013 6.787 12.506 3.528 3.529 7.925 5.87 12.708 6.83l-8.4 8.4zm29.664-50.041c.615.615.954 1.434.954 2.303 0 .871-.339 1.688-.954 2.304l-7.317 7.317c-1.23 1.228-3.375 1.23-4.606 0a3.262 3.262 0 0 1 0-4.606l7.317-7.318c1.231-1.231 3.376-1.23 4.606 0zm4.907 13.299l-5.425 5.424c-1.23 1.229-3.377 1.231-4.606-.001a3.26 3.26 0 0 1 0-4.605l5.425-5.425c1.23-1.229 3.376-1.23 4.606 0a3.262 3.262 0 0 1 0 4.607zm5.55 6.7c0 .87-.34 1.687-.955 2.303l-5.42 5.419c-1.23 1.232-3.377 1.229-4.606.001v-.001a3.235 3.235 0 0 1-.955-2.302c0-.87.34-1.688.955-2.303l5.42-5.42a3.236 3.236 0 0 1 2.303-.954c.87 0 1.69.339 2.303.954.615.615.954 1.433.954 2.303zm3.101 0a6.316 6.316 0 0 0-1.863-4.496 6.305 6.305 0 0 0-3.386-1.761c1.135-2.366.75-5.284-1.209-7.243a6.305 6.305 0 0 0-3.518-1.78c.31-.756.474-1.573.474-2.416a6.318 6.318 0 0 0-1.863-4.496 6.307 6.307 0 0 0-2.94-1.664l9.39-9.391a6.314 6.314 0 0 0 1.863-4.497 6.31 6.31 0 0 0-1.863-4.496 6.315 6.315 0 0 0-4.497-1.863 6.315 6.315 0 0 0-4.496 1.863L56.395 49.372c-2.527 2.529-6.927 4.259-9.237 3.74a28.32 28.32 0 0 0-5.89-8.751 7.136 7.136 0 0 0-6.348-2.03 7.041 7.041 0 0 0-5.186 4.033 4.621 4.621 0 0 0 .53 4.693c1.89 2.502 6.234 9.11 5.767 16.391l.001.013c0 .01-.004.018-.004.028-.019.673-.003 1.341.03 2.005-.03.026-.069.036-.099.065L25.675 79.844a1.537 1.537 0 0 0-.402.7c-.074.278-1.696 6.916 7.445 16.057 6.643 6.643 11.964 7.603 14.483 7.603.948 0 1.5-.136 1.576-.156.264-.071.506-.209.7-.404l10.485-10.485.004-.005c.35.015.697.026 1.05.026 6.676 0 12.953-2.601 17.674-7.322l9.01-9.008v-.001l1.306-1.306a6.318 6.318 0 0 0 1.863-4.497z"/>
        <path fill="#535355" d="M53.005 35.001a1.552 1.552 0 0 0 3.078-.386l-1.4-11.183a1.552 1.552 0 0 0-3.078.386l1.4 11.183zM61.938 36.213a1.553 1.553 0 0 0 2.063-.747l7.432-15.856a1.55 1.55 0 1 0-2.809-1.316L61.192 34.15a1.552 1.552 0 0 0 .746 2.063M46.814 42.853a1.552 1.552 0 0 0 2.81-1.317L38.729 18.294a1.55 1.55 0 0 0-2.81 1.317l10.895 23.242z"/>
        <path fill="#00EFD1" d="M46.83 16.5a2.68 2.68 0 0 0 3.797 0l.966-.966.965.965c.524.524 1.21.787 1.898.787a2.683 2.683 0 0 0 1.897-4.583l-.964-.966.964-.965a2.683 2.683 0 0 0 0-3.796 2.682 2.682 0 0 0-3.795 0l-.965.964-.965-.964a2.684 2.684 0 1 0-3.797 3.796l.966.965-.966.966a2.683 2.683 0 0 0 0 3.796M31.428 35.54c.116.087.251.147.384.206.133.06.28.103.414.133a2.18 2.18 0 0 0 1.995-.607 2.19 2.19 0 0 0 .665-1.566c0-.59-.236-1.153-.665-1.567a2.2 2.2 0 0 0-1.995-.606c-.134.03-.28.06-.414.12a3.11 3.11 0 0 0-.384.205 2.095 2.095 0 0 0-.34.281 2.216 2.216 0 0 0-.652 1.567c0 .576.237 1.153.651 1.566.104.104.222.192.341.267M61.008 15.944c.05.153.136.306.22.44.101.137.204.272.321.39.12.12.255.22.391.323.135.085.288.17.44.238.152.05.305.102.476.136a2.538 2.538 0 0 0 2.288-.696c.12-.12.22-.254.322-.39a3.56 3.56 0 0 0 .237-.441c.051-.152.103-.305.136-.474.034-.152.051-.322.051-.492 0-.17-.017-.34-.05-.492-.034-.17-.086-.322-.137-.474a3.633 3.633 0 0 0-.237-.441 2.537 2.537 0 0 0-2.61-1.085c-.17.034-.324.085-.476.135a3.768 3.768 0 0 0-.44.238c-.136.102-.272.204-.39.322a2.51 2.51 0 0 0-.322.39 2.088 2.088 0 0 0-.22.44 2.151 2.151 0 0 0-.152.475 2.236 2.236 0 0 0-.052.492c0 .17.017.34.052.492.033.169.084.322.152.474"/>
    </g>
</svg>
